<?xml version="1.0" ?><svg xmlns="http://www.w3.org/2000/svg" width="90" height="91" viewBox="0 0 90 91" fill="none">
<g id="Bowl-Spoon--Streamline-Tabler">
<path id="Vector" d="M16.8767 41.9846H73.1234C74.0557 41.9846 74.9499 42.355 75.6091 43.0142C76.2684 43.6735 76.6388 44.5677 76.6388 45.5V47.2577C76.6388 52.5308 67.7905 66.8491 62.5771 70.1079V73.6233C62.5771 74.5557 62.2067 75.4498 61.5475 76.1091C60.8882 76.7684 59.994 77.1388 59.0617 77.1388H30.9384C30.006 77.1388 29.1118 76.7684 28.4526 76.1091C27.7933 75.4498 27.4229 74.5557 27.4229 73.6233V70.1079C21.4924 66.4027 13.3613 52.5308 13.3613 47.2577V45.5C13.3613 44.5677 13.7316 43.6735 14.3909 43.0142C15.0502 42.355 15.9443 41.9846 16.8767 41.9846Z" stroke="black" stroke-width="7.0" stroke-linecap="round" stroke-linejoin="round"/>
<path id="Vector_2" d="M30.9383 27.9229C36.7634 27.9229 41.4846 24.7766 41.4846 20.8921C41.4846 17.0075 36.7634 13.8612 30.9383 13.8612C25.1133 13.8612 20.3921 17.0075 20.3921 20.8921C20.3921 24.7766 25.1133 27.9229 30.9383 27.9229Z" stroke="black" stroke-width="7.0" stroke-linecap="round" stroke-linejoin="round"/>
<path id="Vector_3" d="M41.4846 20.8921H73.1233" stroke="black" stroke-width="7.0" stroke-linecap="round" stroke-linejoin="round"/>
</g>
</svg>