<svg width="51" height="50" viewBox="0 0 51 50" fill="none" xmlns="http://www.w3.org/2000/svg">
<g id="Temperature-Celsius--Streamline-Tabler">
<path id="Vector" d="M9.875 17.1875C9.875 18.2235 10.2866 19.2171 11.0191 19.9496C11.7517 20.6822 12.7452 21.0938 13.7812 21.0938C14.8173 21.0938 15.8108 20.6822 16.5434 19.9496C17.2759 19.2171 17.6875 18.2235 17.6875 17.1875C17.6875 16.1515 17.2759 15.1579 16.5434 14.4254C15.8108 13.6928 14.8173 13.2813 13.7812 13.2812C12.7452 13.2813 11.7517 13.6928 11.0191 14.4254C10.2866 15.1579 9.875 16.1515 9.875 17.1875Z" stroke="black" stroke-width="4" stroke-linecap="round" stroke-linejoin="round"/>
<path id="Vector_2" d="M41.125 19.1406C41.125 17.5866 40.5077 16.0963 39.4088 14.9974C38.31 13.8986 36.8196 13.2812 35.2656 13.2812H33.3125C31.7585 13.2812 30.2681 13.8986 29.1693 14.9974C28.0704 16.0963 27.4531 17.5866 27.4531 19.1406V30.8594C27.4531 32.4134 28.0704 33.9037 29.1693 35.0026C30.2681 36.1014 31.7585 36.7188 33.3125 36.7188H35.2656C36.8196 36.7188 38.31 36.1014 39.4088 35.0026C40.5077 33.9037 41.125 32.4134 41.125 30.8594" stroke="black" stroke-width="4" stroke-linecap="round" stroke-linejoin="round"/>
</g>
</svg>
