<svg width="51" height="50" viewBox="0 0 51 50" fill="none" xmlns="http://www.w3.org/2000/svg">
<g id="Temperature-Fahrenheit--Streamline-Tabler">
<path id="Vector" d="M9.875 17.1875C9.875 18.2235 10.2866 19.2171 11.0191 19.9496C11.7517 20.6822 12.7452 21.0938 13.7812 21.0938C14.8173 21.0938 15.8108 20.6822 16.5434 19.9496C17.2759 19.2171 17.6875 18.2235 17.6875 17.1875C17.6875 16.1515 17.2759 15.1579 16.5434 14.4254C15.8108 13.6928 14.8173 13.2813 13.7812 13.2812C12.7452 13.2813 11.7517 13.6928 11.0191 14.4254C10.2866 15.1579 9.875 16.1515 9.875 17.1875Z" stroke="black" stroke-width="4" stroke-linecap="round" stroke-linejoin="round"/>
<path id="Vector_2" d="M27.4531 25H37.2188" stroke="black" stroke-width="4" stroke-linecap="round" stroke-linejoin="round"/>
<path id="Vector_3" d="M41.125 13.2812H29.4062C28.8882 13.2812 28.3915 13.487 28.0252 13.8533C27.6589 14.2196 27.4531 14.7164 27.4531 15.2344V36.7188" stroke="black" stroke-width="4" stroke-linecap="round" stroke-linejoin="round"/>
</g>
</svg>
