<svg width="212" height="205" viewBox="0 0 212 205" fill="none" xmlns="http://www.w3.org/2000/svg">
<g id="Homepage Robot">
<g id="Vector">
<path d="M141.5 22.5C141.5 24.7213 140.535 26.717 139 28.0903V37.5H164C172.285 37.5 179 44.2157 179 52.5V102.5C179 110.785 172.285 117.5 164 117.5H134H104C95.7157 117.5 89 110.785 89 102.5V52.5C89 44.2157 95.7157 37.5 104 37.5H129V28.0903C127.465 26.717 126.5 24.7213 126.5 22.5C126.5 18.3579 129.858 15 134 15C138.142 15 141.5 18.3579 141.5 22.5ZM104 47.5C101.239 47.5 99 49.7386 99 52.5V102.5C99 105.261 101.239 107.5 104 107.5H164C166.761 107.5 169 105.261 169 102.5V52.5C169 49.7386 166.761 47.5 164 47.5H104ZM84 62.5H74V92.5H84V62.5ZM184 62.5H194V92.5H184V62.5ZM119 85C123.142 85 126.5 81.642 126.5 77.5C126.5 73.358 123.142 70 119 70C114.858 70 111.5 73.358 111.5 77.5C111.5 81.642 114.858 85 119 85ZM149 85C153.142 85 156.5 81.642 156.5 77.5C156.5 73.358 153.142 70 149 70C144.858 70 141.5 73.358 141.5 77.5C141.5 81.642 144.858 85 149 85Z" fill="black"/>
<path d="M109 121H99V194H109V121Z" fill="black"/>
<path d="M169 121H159V194H169V121Z" fill="black"/>
<path d="M112 158V170H156.5V158H112Z" fill="black"/>
<path d="M182 121H172V166H182V121Z" fill="black"/>
<path d="M96 121H86V127V133H66V143H96V133V121Z" fill="black"/>
</g>
</g>
</svg>
