<?xml version="1.0" ?><svg xmlns="http://www.w3.org/2000/svg" width="25" height="25" viewBox="0 0 25 25" fill="none">
<g id="Info-Square--Streamline-Mynaui">
<path id="Vector" d="M12.5 16.4062V11.5234H12.0117M12.0117 16.4062H12.9883M12.5 9.08203V8.59375" stroke="black" stroke-linecap="round" stroke-linejoin="round" stroke-width="1.5"/>
<path id="Vector_2" d="M3.71094 9.96094C3.71094 7.77344 3.71094 6.67969 4.13672 5.84375C4.51122 5.10877 5.10877 4.51122 5.84375 4.13672C6.67969 3.71094 7.77344 3.71094 9.96094 3.71094H15.0391C17.2266 3.71094 18.3203 3.71094 19.1563 4.13672C19.8912 4.51122 20.4888 5.10877 20.8633 5.84375C21.2891 6.67969 21.2891 7.77344 21.2891 9.96094V15.0391C21.2891 17.2266 21.2891 18.3203 20.8633 19.1563C20.4888 19.8912 19.8912 20.4888 19.1563 20.8633C18.3203 21.2891 17.2266 21.2891 15.0391 21.2891H9.96094C7.77344 21.2891 6.67969 21.2891 5.84375 20.8633C5.10877 20.4888 4.51122 19.8912 4.13672 19.1563C3.71094 18.3203 3.71094 17.2266 3.71094 15.0391V9.96094Z" stroke="black" stroke-linecap="round" stroke-linejoin="round" stroke-width="1.5"/>
</g>
</svg>