<svg width="192" height="192" viewBox="0 0 192 192" fill="none" xmlns="http://www.w3.org/2000/svg">
<g id="Gift--Streamline-Heroicons-Outline">
<path id="Vector" d="M164.25 90.3125V152.875C164.25 155.892 163.052 158.785 160.918 160.918C158.785 163.052 155.892 164.25 152.875 164.25H44.8125C43.3187 164.25 41.8396 163.956 40.4595 163.384C39.0794 162.812 37.8254 161.975 36.7692 160.918C34.6359 158.785 33.4375 155.892 33.4375 152.875V90.3125M96 41.9688C96 38.0317 94.8325 34.183 92.6452 30.9094C90.4579 27.6359 87.3489 25.0844 83.7115 23.5778C80.0741 22.0711 76.0717 21.6769 72.2102 22.445C68.3488 23.2131 64.8018 25.109 62.0179 27.8929C59.234 30.6769 57.3381 34.2238 56.57 38.0852C55.8019 41.9467 56.1961 45.9492 57.7028 49.5865C59.2094 53.2239 61.7609 56.3329 65.0344 58.5202C68.308 60.7075 72.1567 61.875 76.0938 61.875H96M96 41.9688V61.875M96 41.9688C96 38.0317 97.1675 34.183 99.3548 30.9094C101.542 27.6359 104.651 25.0844 108.288 23.5778C111.926 22.0711 115.928 21.6769 119.79 22.445C123.651 23.2131 127.198 25.109 129.982 27.8929C132.766 30.6769 134.662 34.2238 135.43 38.0852C136.198 41.9467 135.804 45.9492 134.297 49.5865C132.791 53.2239 130.239 56.3329 126.966 58.5202C123.692 60.7075 119.843 61.875 115.906 61.875H96M96 61.875V164.25M30.5938 90.3125H167.094C171.803 90.3125 175.625 86.4905 175.625 81.7813V70.4063C175.625 65.697 171.803 61.875 167.094 61.875H30.5938C25.8845 61.875 22.0625 65.697 22.0625 70.4063V81.7813C22.0625 86.4905 25.8845 90.3125 30.5938 90.3125Z" stroke="black" stroke-width="10" stroke-linecap="round" stroke-linejoin="round"/>
</g>
</svg>
