<?xml version="1.0" encoding="UTF-8"?>
<svg id="Layer_1" xmlns="http://www.w3.org/2000/svg" version="1.1" viewBox="0 0 205.8 218.4">
  <!-- Generator: Adobe Illustrator 29.0.1, SVG Export Plug-In . SVG Version: 2.1.0 Build 192)  -->
  <defs>
    <style>
      .st0 {
        fill: none;
        stroke: #000;
        stroke-linecap: round;
        stroke-linejoin: round;
        stroke-width: 5px;
      }

      .st1 {
        fill-rule: evenodd;
      }
    </style>
  </defs>
  <path id="Vector" class="st0" d="M82,201.1C27.8,189.5-6.8,136.2,4.7,82,16.2,27.8,69.5-6.8,123.7,4.7c54.2,11.5,88.8,64.8,77.3,119-3.8,17.9-12.1,33.6-23.6,46.3l-1.2,45.9-42.4-17.6c-16.2,5.3-34,6.5-51.9,2.7h.1Z"/>
  <g id="Free_Remix_Food_Drink_serving-dome--cook-tool-dome-kitchen-serving-paltter-dish-tools-food-kitchenware">
    <path id="Union" class="st1" d="M102.9,54.1c2.3,0,4.2,1.9,4.2,4.2v5.9c24.1,2.2,42.9,22.7,42.9,47.3s-4.6,10.4-10.4,10.4h-73.4c-5.8,0-10.4-4.8-10.4-10.4,0-24.6,18.8-45.1,42.9-47.3v-5.9c0-2.3,1.9-4.2,4.2-4.2h0ZM102.9,72.4c-21.3,0-38.7,17.6-38.7,39.1s.9,2,2,2h73.4c1.1,0,2-.9,2-2,0-21.4-17.4-39.1-38.7-39.1h0ZM61.7,129.2c-3.2,0-5.9,2.6-5.9,5.9s2.6,5.9,5.9,5.9h82.4c3.2,0,5.9-2.6,5.9-5.9s-2.6-5.9-5.9-5.9H61.7Z"/>
  </g>
  <g>
    <path d="M87.2,157.8c0,1.1-.9,1.9-2,1.9h-.5l2.5,3v.5h-2l-2.9-3.5h-3.3v3.5h-1.8v-10.1h8.1c1.1,0,2,.9,2,1.9v2.7ZM85.2,157.9c0,0,0,0,0,0v-2.7c0,0,0,0,0,0h-6.2c0,0,0,0,0,0v2.7c0,0,0,0,0,0h6.2Z"/>
    <path d="M96.8,157v3.1h-6.4v1.2c0,0,0,0,0,0h6.3v1.8h-6.3c-1.1,0-1.9-.9-1.9-1.9v-4.3c0-1.1.9-1.9,1.9-1.9h4.4c1.1,0,1.9.9,1.9,1.9ZM95,158.2v-1.2c0,0,0,0,0,0h-4.4c0,0,0,0,0,0v1.2h4.6Z"/>
    <path d="M106.3,161.4v1.8h-6.3c-1.1,0-1.9-.9-1.9-1.9v-4.3c0-1.1.9-1.9,1.9-1.9h6.3v1.8h-6.3c0,0,0,0,0,0v4.3c0,0,0,0,0,0h6.3Z"/>
    <path d="M109.7,152.4v1.8h-1.8v-1.8h1.8ZM107.8,155.1h1.8v8.1h-1.8v-8.1Z"/>
    <path d="M119.4,157v4.3c0,1.1-.9,1.9-1.9,1.9h-4.5v3.2h-1.8v-11.3h6.3c1.1,0,1.9.9,1.9,1.9ZM117.5,157c0,0,0,0,0,0h-4.4c0,0,0,0,0,0v4.3c0,0,0,0,0,0h4.4c0,0,0,0,0,0v-4.3Z"/>
    <path d="M128.6,157v3.1h-6.4v1.2c0,0,0,0,0,0h6.3v1.8h-6.3c-1.1,0-1.9-.9-1.9-1.9v-4.3c0-1.1.9-1.9,1.9-1.9h4.4c1.1,0,1.9.9,1.9,1.9ZM126.8,158.2v-1.2c0,0,0,0,0,0h-4.4c0,0,0,0,0,0v1.2h4.6Z"/>
  </g>
</svg>