<?xml version="1.0" encoding="UTF-8"?>
<svg id="Layer_1" xmlns="http://www.w3.org/2000/svg" version="1.1" viewBox="0 0 153 162">
  <!-- Generator: Adobe Illustrator 29.0.1, SVG Export Plug-In . SVG Version: 2.1.0 Build 192)  -->
  <defs>
    <style>
      .st0 {
        fill: none;
        stroke: #000;
        stroke-linecap: round;
        stroke-linejoin: round;
        stroke-width: 5px;
      }

      .st1 {
        fill-rule: evenodd;
      }
    </style>
  </defs>
  <path id="Vector" class="st0" d="M61.2,148.4C21.5,140-3.8,100.9,4.6,61.2,13,21.5,52.1-3.8,91.8,4.6c39.7,8.4,65.1,47.5,56.6,87.2-2.8,13.1-8.9,24.6-17.3,33.9l-.8,33.6-31.1-12.9c-11.9,3.9-24.9,4.8-38,2h0Z"/>
  <g>
    <g>
      <path d="M63.7,111.5c0,.9-.7,1.6-1.6,1.6h-.4l2,2.4v.4h-1.6l-2.3-2.9h-2.7v2.9h-1.5v-8.2h6.6c.9,0,1.6.7,1.6,1.6v2.2h-.2ZM62.1,111.6h0v-2.2h-5v2.2h5Z"/>
      <path d="M71.6,110.9v2.5h-5.2v.9h5.1v1.5h-5.1c-.9,0-1.6-.7-1.6-1.6v-3.5c0-.9.7-1.6,1.6-1.6h3.5c.9,0,1.6.7,1.6,1.6h0v.2ZM70.1,111.9v-.9h-3.5v.9h3.7-.2Z"/>
      <path d="M79.3,114.5v1.5h-5.1c-.9,0-1.6-.7-1.6-1.6v-3.5c0-.9.7-1.6,1.6-1.6h5.1v1.5h-5.1v3.5h5.1v.2Z"/>
      <path d="M82,107.2v1.5h-1.5v-1.5h1.5ZM80.5,109.4h1.5v6.6h-1.5v-6.6Z"/>
      <path d="M89.9,110.9v3.5c0,.9-.7,1.6-1.6,1.6h-3.6v2.6h-1.5v-9.2h5.1c.9,0,1.6.7,1.6,1.6h0ZM88.4,110.9h-3.5v3.5h3.5v-3.5Z"/>
      <path d="M97.3,110.9v2.5h-5.2v.9h5.1v1.5h-5.1c-.9,0-1.6-.7-1.6-1.6v-3.5c0-.9.7-1.6,1.6-1.6h3.5c.9,0,1.6.7,1.6,1.6h0v.2ZM96,111.9v-.9h-3.5v.9h3.7-.2Z"/>
    </g>
    <g id="Free_Remix_x2F_Food_Drink_x2F_serving-dome--cook-tool-dome-kitchen-serving-paltter-dish-tools-food-kitchenware">
      <path id="Union" class="st1" d="M76.5,34.3c1.8,0,3.3,1.5,3.3,3.3v4.6c18.5,1.7,33,17.5,33,36.4s-3.5,8-8,8h-56.6c-4.5,0-8-3.6-8-8,0-18.9,14.5-34.7,33-36.4v-4.6c0-1.8,1.5-3.3,3.3-3.3ZM76.5,48.3c-16.4,0-29.8,13.6-29.8,30.1s.7,1.6,1.5,1.6h56.6c.8,0,1.5-.7,1.5-1.6,0-16.5-13.4-30.1-29.8-30.1ZM44.8,93.3c-2.5,0-4.6,1.6-4.6,3.4s2,3.4,4.6,3.4h63.5c2.5,0,4.6-1.6,4.6-3.4s-2-3.4-4.6-3.4h-63.5Z"/>
    </g>
  </g>
</svg>