<svg width="32" height="32" viewBox="0 0 32 32" fill="none" xmlns="http://www.w3.org/2000/svg">
<g id="Loop-Left-Line--Streamline-Remix">
<path id="Vector" d="M16 5.33329C12.3353 5.33329 9.10013 7.18164 7.17926 9.99996H10.6667V12.6666H2.66669V4.66663H5.33335V7.99911C7.7651 4.76217 11.6369 2.66663 16 2.66663C23.3638 2.66663 29.3334 8.63616 29.3334 16H26.6667C26.6667 10.1089 21.8911 5.33329 16 5.33329ZM5.33335 16C5.33335 21.891 10.109 26.6666 16 26.6666C19.6648 26.6666 22.8999 24.8182 24.8208 22H21.3334V19.3333H29.3334V27.3333H26.6667V24.0008C24.235 27.2377 20.3632 29.3333 16 29.3333C8.63622 29.3333 2.66669 23.3637 2.66669 16H5.33335Z" fill="black"/>
</g>
</svg>
