<svg width="80" height="80" viewBox="0 0 80 80" fill="none" xmlns="http://www.w3.org/2000/svg">
<g id="Robot-2-Line--Streamline-Remix">
<path id="Vector" d="M45 6.66669C45 8.14752 44.3563 9.47799 43.3333 10.3935V16.6667H60C65.523 16.6667 70 21.1439 70 26.6667V60C70 65.523 65.523 70 60 70H20C14.4772 70 10 65.523 10 60V26.6667C10 21.1439 14.4772 16.6667 20 16.6667H36.6667V10.3935C35.6437 9.47799 35 8.14752 35 6.66669C35 3.90525 37.2387 1.66669 40 1.66669C42.7613 1.66669 45 3.90525 45 6.66669ZM20 23.3334C18.1591 23.3334 16.6667 24.8258 16.6667 26.6667V60C16.6667 61.841 18.1591 63.3334 20 63.3334H60C61.841 63.3334 63.3333 61.841 63.3333 60V26.6667C63.3333 24.8258 61.841 23.3334 60 23.3334H20ZM6.66667 33.3334H0V53.3334H6.66667V33.3334ZM73.3333 33.3334H80V53.3334H73.3333V33.3334ZM30 48.3334C32.7614 48.3334 35 46.0947 35 43.3334C35 40.572 32.7614 38.3334 30 38.3334C27.2386 38.3334 25 40.572 25 43.3334C25 46.0947 27.2386 48.3334 30 48.3334ZM50 48.3334C52.7613 48.3334 55 46.0947 55 43.3334C55 40.572 52.7613 38.3334 50 38.3334C47.2387 38.3334 45 40.572 45 43.3334C45 46.0947 47.2387 48.3334 50 48.3334Z" fill="black"/>
</g>
</svg>
