<svg width="90" height="91" viewBox="0 0 90 91" fill="none" xmlns="http://www.w3.org/2000/svg">
<g id="temperature 1">
<g id="Temperature-Max--Streamline-Carbon">
<path id="Vector" d="M59.1 28.6H73.2C74.8 28.6 76 29.9 76 31.4C76 33 74.7 34.2 73.2 34.2H59.1C57.5 34.2 56.3 32.9 56.3 31.4C56.3 29.8 57.6 28.6 59.1 28.6Z" fill="black"/>
<path id="Vector_2" d="M35.8 11.8H79.5C81.1 11.8 82.3 13.1 82.3 14.6C82.3 16.2 81 17.4 79.5 17.4H35.8C34.2 17.4 33 16.1 33 14.6C33 13 34.3 11.8 35.8 11.8Z" fill="black"/>
<path id="Vector_2_2" d="M59.1 45.5H81.6C83.2 45.5 84.4001 46.8 84.4001 48.3C84.4001 49.9 83.1 51.1 81.6 51.1H59.1C57.5 51.1 56.3 49.8 56.3 48.3C56.3 46.7 57.6 45.5 59.1 45.5Z" fill="black"/>
<path id="Vector_3" d="M59.1 62.4H73.2C74.8 62.4 76 63.7 76 65.2C76 66.8 74.7 68 73.2 68H59.1C57.5 68 56.3 66.7 56.3 65.2C56.3 63.6 57.6 62.4 59.1 62.4Z" fill="black"/>
<path id="Vector_4" d="M28.1 55.5V23C28.1 21.4 26.8 20.2 25.3 20.2C23.7 20.2 22.5 21.5 22.5 23V55.5C22.5 56.5 22 57.4 21.1 57.9C19.8 58.6 18.8 59.7 18 61C17 62.7 16.6 64.7 17 66.7C17.3 68.7 18.4 70.4 19.9 71.7C21.4 73 23.3 73.7 25.3 73.7C27.3 73.7 29.2 73 30.7 71.7C32.2 70.4 33.2 68.6 33.6 66.7C33.9 64.7 33.6 62.7 32.6 61C31.9 59.7 30.8 58.7 29.5 57.9C28.2 57.1 28.1 56.5 28.1 55.5Z" fill="black"/>
<path id="Vector_5" d="M36.9 11.7C36.7 11.7 36.4 11.6 36.3 11.4C34.6 9.19999 32.2 7.59999 29.5 6.69999C26.7 5.79999 23.7 5.79999 20.9 6.69999C18.1 7.59999 15.7 9.39999 14 11.8C12.3 14.2 11.4 17.1 11.4 20V50.9C11.4 51.1 11.4 51.3 11.2 51.4C8.60002 54.1 6.80002 57.6 6.10002 61.3C5.40002 65.1 5.80002 69 7.30002 72.6C8.80002 76.2 11.3 79.2 14.6 81.4C17.8 83.5 21.6 84.7 25.5 84.7C29.4 84.7 33.2 83.6 36.4 81.4C39.6 79.3 42.2 76.2 43.7 72.6C45.2 69 45.6 65.1 44.9 61.3C44.2 57.6 42.4 54.2 39.8 51.4C37.2 48.6 39.6 51.1 39.6 50.9V20C39.6 19.4 39.6 18.7 39.5 18.1C39.4 17.5 39.8 17.2 40.3 17.2M25.3 79.2C22.5 79.2 19.7 78.3 17.3 76.7C15 75.1 13.2 72.8 12.1 70.1C11.1 67.4 10.9 64.5 11.6 61.8C12.3 59 13.8 56.5 15.9 54.6L16.6 54C16.8 53.9 16.9 53.6 16.9 53.4V20.4C16.9 19.3 17.1 18.1 17.5 17.1C18.9 13.8 22 11.8 25.4 11.8C28.8 11.8 31.9 13.8 33.3 17.1C34.7 20.4 33.9 19.3 33.9 20.4V53.5C33.9 53.7 33.9 53.9 34.2 54.1L34.9 54.7C37 56.6 38.5 59.1 39.2 61.9C39.9 64.7 39.7 67.6 38.7 70.2C37.7 72.9 35.9 75.1 33.5 76.8C31.2 78.4 28.4 79.3 25.5 79.3L25.3 79.2Z" fill="black"/>
</g>
</g>
</svg>
