<?xml version="1.0" encoding="UTF-8"?>
<svg id="Layer_1" xmlns="http://www.w3.org/2000/svg" version="1.1" viewBox="0 0 116 292">
  <!-- Generator: Adobe Illustrator 29.0.1, SVG Export Plug-In . SVG Version: 2.1.0 Build 192)  -->
  <path d="M76.2,248.2c0,3.4-.9,6.8-2.7,9.7-1.8,2.9-4.3,5.3-7.4,6.9-3.1,1.6-6.5,2.3-9.9,2.1-3.4-.2-6.7-1.4-9.5-3.4-2.8-2-5-4.7-6.4-7.9-1.4-3.2-1.8-6.6-1.4-10,.5-3.4,1.9-6.6,4-9.3,2.2-2.7,5-4.7,8.3-5.8l.5-155.5c0-1.7.7-3.2,1.8-4.4,1.2-1.2,2.8-1.8,4.4-1.8s3.2.7,4.4,1.8c1.2,1.2,1.8,2.8,1.8,4.4l-.5,155.5c3.7,1.3,6.8,3.7,9.1,6.9,2.2,3.2,3.4,7,3.4,10.8Z"/>
  <path d="M26.2,53.2c0-8.3,3.3-16.2,9.2-22.1s13.8-9.2,22.1-9.2,16.2,3.3,22.1,9.2c5.9,5.9,9.2,13.8,9.2,22.1v164.4c6,6.2,10.1,13.9,11.7,22.4,1.6,8.5.7,17.2-2.6,25.2-3.3,7.9-8.9,14.7-16.1,19.5-7.2,4.8-15.6,7.3-24.2,7.3s-17-2.5-24.2-7.3c-7.2-4.8-12.8-11.5-16.1-19.5-3.3-7.9-4.3-16.7-2.6-25.2,1.6-8.5,5.7-16.3,11.7-22.4V53.2ZM57.5,34.5c-5,0-9.7,2-13.3,5.5-3.5,3.5-5.5,8.3-5.5,13.3v169.8l-2.1,1.9c-4.7,4.2-8,9.8-9.5,15.9-1.5,6.2-1.1,12.6,1.2,18.5,2.3,5.9,6.3,11,11.5,14.6,5.2,3.6,11.4,5.5,17.7,5.5s12.5-1.9,17.7-5.5c5.2-3.6,9.2-8.7,11.5-14.6,2.3-5.9,2.7-12.4,1.2-18.5-1.5-6.2-4.8-11.7-9.5-15.9l-2.1-1.9V53.2c0-5-2-9.7-5.5-13.3-3.5-3.5-8.3-5.5-13.3-5.5Z"/>
</svg>