<?xml version="1.0" encoding="UTF-8"?>
<svg id="Layer_1" xmlns="http://www.w3.org/2000/svg" xmlns:xlink="http://www.w3.org/1999/xlink" version="1.1" viewBox="0 0 155.9 169.4">
  <!-- Generator: Adobe Illustrator 29.0.1, SVG Export Plug-In . SVG Version: 2.1.0 Build 192)  -->
  <defs>
    <style>
      .st0, .st1 {
        fill: none;
      }

      .st1 {
        stroke: #000;
        stroke-linecap: round;
        stroke-linejoin: round;
        stroke-width: 5px;
      }

      .st2 {
        fill-rule: evenodd;
      }

      .st3 {
        clip-path: url(#clippath);
      }
    </style>
    <clipPath id="clippath">
      <rect class="st0" x="38.2" y="32.9" width="77.6" height="77.6"/>
    </clipPath>
  </defs>
  <path id="Vector" class="st1" d="M99.2,150.4c40-11.7,62.9-53.6,51.2-93.6C138.7,16.8,96.8-6.2,56.8,5.6,16.8,17.3-6.2,59.2,5.6,99.2c3.9,13.2,11,24.5,20.3,33.4l3.5,34.4,30.8-15.6c12.4,3,25.8,2.9,39-.9h0Z"/>
  <g>
    <g class="st3">
      <g id="Spatula-Line--Streamline-Mingcute">
        <g id="Group">
          <path id="Vector-2" class="st2" d="M93.9,43.3c3.2-3.2,8.3-3.2,11.5,0s3.2,8.3,0,11.5l-6.8,6.8c-2.3,2.3-5.8,3-8.7,1.8l-5.5,5.5,1.8,2.7c4.2,6.5,3.5,14.9-2,20.4l-10.8,10.8c-2.5,2.5-6.6,2.5-9.1,0l-18.3-18.3c-2.5-2.5-2.5-6.6,0-9.1l10.8-10.8c5.5-5.5,14-6.3,20.4-2l2.7,1.8,5.5-5.5c-1.2-2.9-.6-6.4,1.8-8.7l6.8-6.8h0ZM100.8,47.9c-.7-.7-1.6-.7-2.3,0l-6.8,6.8c-.7.7-.7,1.6,0,2.3s1.6.7,2.3,0l6.8-6.8c.7-.7.7-1.6,0-2.3ZM73.5,67.8c-3.9-2.6-9-2-12.2,1.3l-10.8,10.8,18.3,18.3,10.8-10.8c3.3-3.3,3.8-8.4,1.3-12.2l-2.5-3.9c-.2-.4-.6-.7-.9-.9l-3.9-2.5h0ZM70,71.9c1.3,1.3,1.3,3.3,0,4.6l-6.8,6.8c-1.3,1.3-3.3,1.3-4.6,0s-1.3-3.3,0-4.6l6.8-6.8c1.3-1.3,3.3-1.3,4.6,0ZM76.8,78.7c1.3,1.3,1.3,3.3,0,4.6l-6.8,6.8c-1.3,1.3-3.3,1.3-4.6,0s-1.3-3.3,0-4.6l6.8-6.8c1.3-1.3,3.3-1.3,4.6,0Z"/>
        </g>
      </g>
    </g>
    <g>
      <path d="M64.4,115.1v1.5h-3.4v6.8h-1.5v-6.8h-3.4v-1.5h8.3Z"/>
      <path d="M69.7,116.7c.9,0,1.6.7,1.6,1.6v3.5c0,.9-.7,1.6-1.6,1.6h-3.7c-.9,0-1.6-.7-1.6-1.6v-3.5c0-.9.7-1.6,1.6-1.6h3.7ZM66.1,118.3h0v3.5h3.7v-3.5h-3.7Z"/>
      <path d="M77.4,116.7c.9,0,1.6.7,1.6,1.6v3.5c0,.9-.7,1.6-1.6,1.6h-3.7c-.9,0-1.6-.7-1.6-1.6v-3.5c0-.9.7-1.6,1.6-1.6h3.7ZM73.8,118.3h0v3.5h3.7v-3.5h-3.7Z"/>
      <path d="M81.4,114.5v7.3h1.3v1.5h-1.3c-.9,0-1.6-.7-1.6-1.6v-7.3h1.6Z"/>
      <path d="M90.7,116.7v.4l-2.7,3,2.7,3v.4h-1.6l-2.4-2.6h-1.2v2.6h-1.5v-8.9h1.5v4.8h1.2l2.4-2.6h1.6Z"/>
      <path d="M92.9,114.5v1.5h-1.5v-1.5h1.5ZM91.3,116.7h1.5v6.7h-1.5v-6.7Z"/>
      <path d="M95.6,118.3v3.6h2.5v1.5h-2.5c-.9,0-1.6-.7-1.6-1.6v-7.3h1.5v2.2h2.6v1.5h-2.6,0Z"/>
    </g>
  </g>
</svg>